HIERARCHY
ROOT Hips
{
  OFFSET 37.4377 37.1247 6.03721
  CHANNELS 6 Xposition Yposition Zposition Zrotation Xrotation Yrotation
  JOINT ToSpine
  {
    OFFSET -0.0105055 1.38907 -7.13956
    CHANNELS 3 Zrotation Xrotation Yrotation
    JOINT Spine
    {
      OFFSET 0.0105055 10 1
      CHANNELS 3 Zrotation Xrotation Yrotation
      JOINT Spine1
      {
        OFFSET 0 12 1.60637
        CHANNELS 3 Zrotation Xrotation Yrotation
        JOINT Neck
        {
          OFFSET 0 27 2.26658
          CHANNELS 3 Zrotation Xrotation Yrotation
          JOINT Head
          {
            OFFSET 0 9 2.12705
            CHANNELS 3 Zrotation Xrotation Yrotation
            End Site
            {
              OFFSET 0 11 2
            }
          }
        }
        JOINT LeftShoulder
        {
          OFFSET 8 19.6109 2.86452
          CHANNELS 3 Zrotation Xrotation Yrotation
          JOINT LeftArm
          {
            OFFSET 12 1 0.681055
            CHANNELS 3 Zrotation Xrotation Yrotation
            JOINT LeftForeArm
            {
              OFFSET 19 0 -1.52608
              CHANNELS 3 Zrotation Xrotation Yrotation
              JOINT LeftHand
              {
                OFFSET 23 0 0
                CHANNELS 3 Zrotation Xrotation Yrotation
                End Site
                {
                  OFFSET 10 0 0
                }
              }
            }
          }
        }
        JOINT RightShoulder
        {
          OFFSET -8 19.6109 2.86452
          CHANNELS 3 Zrotation Xrotation Yrotation
          JOINT RightArm
          {
            OFFSET -12 1 0.681055
            CHANNELS 3 Zrotation Xrotation Yrotation
            JOINT RightForeArm
            {
              OFFSET -19 0 -1.52608
              CHANNELS 3 Zrotation Xrotation Yrotation
              JOINT RightHand
              {
                OFFSET -23 0 0
                CHANNELS 3 Zrotation Xrotation Yrotation
                End Site
                {
                  OFFSET -10 0 0
                }
              }
            }
          }
        }
      }
    }
  }
  JOINT LeftUpLeg
  {
    OFFSET 9 -7.17245 0
    CHANNELS 3 Zrotation Xrotation Yrotation
    JOINT LeftLeg
    {
      OFFSET 0 -44.1113 0
      CHANNELS 3 Zrotation Xrotation Yrotation
      JOINT LeftFoot
      {
        OFFSET 0 -36.1829 0
        CHANNELS 3 Zrotation Xrotation Yrotation
        JOINT LeftToeBase
        {
          OFFSET 0 -4.84184 13
          CHANNELS 3 Zrotation Xrotation Yrotation
          End Site
          {
            OFFSET 0 1 6
          }
        }
      }
    }
  }
  JOINT RightUpLeg
  {
    OFFSET -9 -7.17245 0
    CHANNELS 3 Zrotation Xrotation Yrotation
    JOINT RightLeg
    {
      OFFSET 0 -44.0551 0
      CHANNELS 3 Zrotation Xrotation Yrotation
      JOINT RightFoot
      {
        OFFSET 0 -36.1469 0
        CHANNELS 3 Zrotation Xrotation Yrotation
        JOINT RightToeBase
        {
          OFFSET 0 -4.92256 13
          CHANNELS 3 Zrotation Xrotation Yrotation
          End Site
          {
            OFFSET 0 1 6
          }
        }
      }
    }
  }
}
MOTION
Frames:	7
Frame Time:	0.0333333
37.4753 34.7005 32.5379 0.842511 77.8536 -4.00385 0 0 0 8.24873 14.8317 1.90808 -10.3063 -7.25602 4.02941 6.55649 -19.5781 1.33631 -4.4509 -3.83311 2.93906 -7.36983 1.41793 -5.96696 -18.6192 -3.60115 -43.9922 1.532 0.300218 -78.9152 -23.0678 1.31745 -6.45459 2.42273 1.19609 7.75552 14.2936 3.79891 23.0204 -22.3897 6.08373 75.5728 -13.0289 -0.861511 7.53219 3.09495 -4.29247 5.98403 -0.965972 17.9697 -27.1914 24.875 -23.7254 5.30365 2.75141 -21.8889 -26.0765 0.0136123 -2.16006 -4.07399 -0.179885 12.9292 13.0447 -4.65047 -33.3092 -1.38688 6.38923 -23.0122 0.810029 
37.3941 32.5837 32.8435 5.55784 77.2766 -6.94271 0 0 0 7.33893 13.7355 1.51674 -10.1018 -7.41511 3.33029 6.67276 -19.315 1.21752 -4.93016 -5.28302 2.88431 -7.91458 1.50199 -6.19401 -18.6559 -2.39968 -40.5244 -0.332509 -0.0418772 -82.8219 -23.5413 1.25267 -6.00426 2.39495 1.21475 7.95549 15.6186 5.60537 19.3017 -23.3949 4.35566 80.0434 -13.2902 -0.907309 7.77926 2.23268 -2.3422 5.22986 -0.67967 17.1306 -29.3753 25.9718 -22.3943 5.22787 2.21787 -24.7182 -24.3655 -0.751732 0.429101 -4.93144 -0.137707 11.803 10.9197 -11.9857 -33.7517 -3.64342 7.44291 -26.6266 0.647727 
37.4514 30.5814 33.1665 6.80653 77.4851 -7.09833 0 0 0 7.71872 11.7156 1.41699 -10.3714 -6.15753 3.19916 6.4995 -23.4914 1.08827 -5.1087 -3.96542 2.56165 -8.49771 1.43735 -5.47379 -17.8518 -1.48905 -38.7964 -2.18282 -0.125163 -86.7198 -23.2819 1.08906 -5.28345 2.28439 0.987561 5.92592 17.5461 6.45223 17.5399 -24.9034 2.42201 84.7989 -13.8298 -0.830724 6.84367 2.33782 -1.24526 5.38256 -0.751729 16.9832 -31.5575 25.6733 -23.6245 5.45943 1.7857 -27.3434 -24.6435 -0.386194 1.80544 -3.98267 -0.857151 11.4179 7.77039 -21.304 -33.4271 -6.46529 8.50571 -29.8784 1.07379 
37.4871 28.7265 33.4483 5.95595 77.893 -6.65856 0 0 0 8.15574 9.81274 1.68248 -10.3168 -5.04523 3.38134 6.38944 -26.9878 1.38295 -5.19949 -3.13712 2.65321 -9.11682 1.40749 -4.99563 -16.9503 -0.788658 -35.2741 -2.99789 0.0861174 -91.6439 -22.9792 1.04212 -5.12311 2.30747 0.901416 5.07076 17.7631 7.41443 16.0786 -25.3946 0.650119 88.6308 -14.3395 -0.752636 5.97498 2.73763 -0.599863 5.51687 -0.524402 17.7184 -32.8925 27.2062 -24.8949 6.11393 1.96798 -26.0953 -23.111 0.195193 2.43284 -3.11432 -1.33601 11.7596 6.39646 -24.3888 -33.2577 -7.38645 9.25643 -32.4591 0.741228 
37.528 27.0878 33.8285 5.11799 77.9001 -6.5599 0 0 0 8.35219 9.53258 1.94705 -10.1219 -5.54552 3.48931 6.60167 -29.7636 1.86476 -5.50522 -1.72116 3.03251 -9.78062 1.40519 -4.68483 -15.6711 0.430885 -31.3111 -3.19881 0.374111 -96.6637 -22.6185 0.990183 -4.94888 1.80948 0.816469 4.60936 18.5573 8.89623 14.3488 -26.0341 -0.746617 91.5281 -14.4562 -0.770007 6.06678 3.10488 0.118242 5.9449 -0.564855 18.9791 -33.767 28.1471 -25.5566 6.49704 2.20766 -24.9693 -24.885 0.267793 3.36005 -3.08935 -1.20169 12.1318 6.86101 -23.3651 -33.308 -7.06977 9.73277 -33.6488 1.17723 
37.5454 25.6141 34.3183 5.24391 77.5715 -7.54223 0 0 0 8.35766 8.85219 2.29759 -10.3505 -4.74987 3.83194 7.75074 -32.8571 2.44038 -5.4391 -0.223009 3.38685 -9.37346 1.3457 -4.51223 -15.3497 1.33407 -28.1406 -2.7405 0.509643 -100.527 -22.4405 0.981306 -4.94155 2.72389 0.885086 4.6237 17.5816 9.64452 12.0688 -25.5208 -2.28427 94.7723 -13.9884 -0.721826 5.90682 3.28942 1.85831 6.8234 -1.59187 18.527 -33.5476 30.4127 -24.2732 6.68267 1.99809 -25.5003 -28.4627 0.069109 4.40386 -2.74515 -1.89624 12.9505 8.1805 -20.6942 -34.8042 -6.55242 9.32733 -31.0819 3.6438 
37.5613 24.2172 34.8466 5.34218 77.1755 -7.64759 0 0 0 8.26571 8.35334 2.22621 -10.2911 -4.45735 3.68462 8.15885 -34.8355 2.70068 -4.83393 0.8094 3.34995 -9.31459 1.33869 -4.49735 -14.5351 2.65445 -24.8721 -1.86808 0.485136 -104.553 -21.6363 0.908051 -4.75043 2.18295 0.744699 3.65328 18.4413 11.8711 11.617 -27.3958 -3.33175 96.3984 -15.2504 -0.618711 4.60959 3.0004 3.41599 6.54423 -0.990669 18.5271 -33.5617 27.8475 -26.0774 6.57341 5.05914 -14.5906 -34.5679 -0.0819785 5.68858 -2.60852 -2.19808 13.2334 8.69952 -22.4838 -34.3362 -7.02892 9.64627 -32.135 3.38405 
